<?xml version="1.0" encoding="UTF-8"?>
<svg version="1.1" xmlns="http://www.w3.org/2000/svg" width="300" height="300">
<path d="M0 0 C0.99475637 -0.00315969 1.98951274 -0.00631939 3.01441324 -0.00957483 C6.33987766 -0.01276547 9.66340935 0.02704116 12.98861694 0.06678772 C15.37558936 0.07343293 17.76257027 0.07746706 20.14955139 0.0790863 C25.95454871 0.09001917 31.75886586 0.12889313 37.56363083 0.18082761 C44.32520293 0.24014572 51.08679435 0.26781122 57.84856133 0.29426951 C69.91287353 0.34257953 81.97682484 0.41995428 94.04086304 0.51356506 C105.74491871 0.60436008 117.44885097 0.67410729 129.15316772 0.72059631 C130.23492849 0.724897 130.23492849 0.724897 131.33854301 0.72928458 C132.41844263 0.73357551 132.41844263 0.73357551 133.52015841 0.73795313 C146.85074508 0.79108747 160.1811623 0.86382168 173.51160104 0.94576604 C178.22416552 0.97429313 182.93673803 0.99703381 187.64934158 1.01797295 C193.99091939 1.04733174 200.33221548 1.09187978 206.67360878 1.14826584 C209.00323729 1.1666772 211.33291196 1.18003076 213.66259956 1.18800926 C216.83777545 1.19977293 220.01226147 1.22981244 223.18725586 1.26464844 C224.57649795 1.26351615 224.57649795 1.26351615 225.99380553 1.26236099 C230.80727823 1.33668246 234.06494541 1.5722489 237.96664429 4.70375061 C242.82414122 10.10096943 243.11437424 14.27367812 243.10708618 21.30026245 C243.11154287 22.63307889 243.11154287 22.63307889 243.11608958 23.99282092 C243.12478904 26.98216695 243.12628588 29.97147299 243.1277771 32.96083069 C243.13240437 35.0992949 243.13742891 37.23775829 243.14282227 39.3762207 C243.15595663 45.19444187 243.1623932 51.01265149 243.16683292 56.83088517 C243.16976186 60.46406793 243.17386632 64.09724753 243.1783371 67.7304287 C243.19201449 79.09258822 243.20168008 90.45474052 243.20553899 101.8169077 C243.21002108 114.94265071 243.22757502 128.06828966 243.25653958 141.19400102 C243.27813921 151.33335167 243.28824234 161.472673 243.28958011 171.61204642 C243.29062933 177.67085656 243.2965621 183.72956891 243.31439972 189.78835487 C243.33085072 195.48711203 243.33305031 201.18569758 243.32426071 206.88446999 C243.32348876 208.97666889 243.32785384 211.06887691 243.33771896 213.1610527 C243.35039327 216.01633658 243.34458613 218.87100848 243.33413696 221.72628784 C243.34622157 222.96934282 243.34622157 222.96934282 243.35855031 224.23751003 C243.31664996 229.13008887 242.65748257 232.4576781 239.96664429 236.70375061 C234.49351914 241.64291233 230.83784552 241.8523549 223.65518188 241.85092163 C222.18888985 241.85643666 222.18888985 241.85643666 220.69297576 241.86206311 C217.39649807 241.87313238 214.10005187 241.87694927 210.80355835 241.88075256 C208.44849547 241.88701474 206.09343359 241.89366132 203.7383728 241.90066528 C196.65569354 241.9199168 189.57301781 241.9304971 182.49031889 241.93939307 C179.15582477 241.94377495 175.82133216 241.94914204 172.48683929 241.95438194 C161.40353347 241.97139538 150.32022865 241.98588968 139.23691177 241.99313068 C136.36003874 241.99504061 133.48316572 241.99696094 130.60629272 241.99891663 C129.89125005 241.99940037 129.17620737 241.99988411 128.43949673 242.00038251 C116.85561241 242.00868325 105.27183135 242.03402034 93.68799213 242.0664973 C81.79790727 242.09956135 69.9078749 242.11757887 58.01774383 242.12077492 C51.34074358 242.12294069 44.6638737 242.13214117 37.98691559 242.1572361 C31.70621392 242.1804598 25.42578347 242.18477289 19.14505005 242.17447472 C16.83837738 242.17397787 14.53169162 242.18034198 12.22505951 242.19403076 C9.07839248 242.21166151 5.93270811 242.20468642 2.78604126 242.1914978 C1.87105496 242.20246705 0.95606865 242.21343629 0.01335549 242.22473794 C-5.50261208 242.16883813 -8.65409572 241.38019882 -13.03335571 237.70375061 C-17.3255319 232.81955012 -17.18718421 228.11936295 -17.20071411 221.87945557 C-17.2065075 220.96640996 -17.21230088 220.05336435 -17.21826982 219.11265069 C-17.23636766 216.04040205 -17.24721212 212.96817181 -17.25796509 209.89588928 C-17.26913783 207.69831168 -17.28065107 205.50073579 -17.29248047 203.30316162 C-17.32906092 196.07603837 -17.35425586 188.84889757 -17.37710571 181.62171936 C-17.38105158 180.3930144 -17.38499744 179.16430943 -17.38906288 177.89837098 C-17.4254751 166.31569861 -17.45692597 154.73302021 -17.4781723 143.15030956 C-17.48314155 140.46817192 -17.48818589 137.78603443 -17.49331665 135.10389709 C-17.49458732 134.43726975 -17.49585799 133.77064241 -17.49716717 133.08381424 C-17.51853227 122.28234032 -17.56753438 111.4811704 -17.62756079 100.67984947 C-17.68868366 89.58979821 -17.72280279 78.49987314 -17.73264551 67.40965253 C-17.73891312 61.18296839 -17.75712603 54.95684367 -17.80403137 48.73032188 C-17.84760397 42.87378365 -17.85821477 37.01811257 -17.84340286 31.1614399 C-17.84373231 29.01115661 -17.85607055 26.86083685 -17.88125229 24.71070099 C-17.91381362 21.77574437 -17.90325075 18.84398416 -17.88186646 15.90899658 C-17.90157423 15.05694757 -17.921282 14.20489856 -17.94158697 13.32702988 C-17.86070046 8.93437799 -17.27942844 6.32937631 -14.10740852 3.17240715 C-9.61636724 -0.10751925 -5.40451531 -0.1132951 0 0 Z " fill="#000000" transform="translate(37.033355712890625,28.296249389648438)"/>
<path d="M0 0 C10.56 0 21.12 0 32 0 C42.33720329 14.93151586 42.33720329 14.93151586 46.171875 20.80078125 C46.61984436 21.48335495 47.06781372 22.16592865 47.52935791 22.8691864 C48.93777755 25.01595338 50.34397032 27.16416718 51.75 29.3125 C52.63916989 30.66872013 53.52849288 32.0248399 54.41796875 33.38085938 C57.61303015 38.25321723 60.80642693 43.1266665 64 48 C70.93 58.56 77.86 69.12 85 80 C85.33 53.6 85.66 27.2 86 0 C96.56 0 107.12 0 118 0 C118 43.56 118 87.12 118 132 C107.11 132 96.22 132 85 132 C77.44375563 123.11809872 77.44375563 123.11809872 75.04476929 116.45695496 C73.90141097 113.76815091 72.49172841 111.65268711 70.77587891 109.2902832 C67.28591623 104.41229597 63.94881043 99.45412962 60.65625 94.44140625 C60.08346313 93.57160629 59.51067627 92.70180634 58.92053223 91.8056488 C57.71992936 89.98180936 56.5200258 88.15750939 55.32080078 86.33276367 C53.50598042 83.57159894 51.68871622 80.81205512 49.87109375 78.05273438 C48.69516756 76.26572036 47.51938168 74.47861402 46.34375 72.69140625 C45.81124634 71.88272598 45.27874268 71.07404572 44.73010254 70.24085999 C40.75959991 64.19619862 36.88388291 58.10324457 33 52 C32.67 78.4 32.34 104.8 32 132 C21.44 132 10.88 132 0 132 C0 88.44 0 44.88 0 0 Z " fill="#C5FE01" transform="translate(91,83)"/>
<path d="M0 0 C10.56 0 21.12 0 32 0 C32.99 1.32 33.98 2.64 35 4 C34.67 4.66 34.34 5.32 34 6 C33.34 4.68 32.68 3.36 32 2 C22.1 2 12.2 2 2 2 C2 44.24 2 86.48 2 130 C11.57 130 21.14 130 31 130 C31 103.93 31 77.86 31 51 C31.33 51 31.66 51 32 51 C32 77.73 32 104.46 32 132 C21.44 132 10.88 132 0 132 C0 88.44 0 44.88 0 0 Z " fill="#A1C521" transform="translate(91,83)"/>
<path d="M0 0 C10.56 0 21.12 0 32 0 C32 43.56 32 87.12 32 132 C21.11 132 10.22 132 -1 132 C-1 131.34 -1 130.68 -1 130 C9.23 130 19.46 130 30 130 C30 87.76 30 45.52 30 2 C20.43 2 10.86 2 1 2 C1 27.74 1 53.48 1 80 C0.67 80 0.34 80 0 80 C0 53.6 0 27.2 0 0 Z " fill="#9EC31F" transform="translate(177,83)"/>
<path d="M0 0 C3 3 3 3 4 6 C3.67 6.33 3.34 6.66 3 7 C2.8758378 9.26920225 2.82196252 11.5422645 2.79467773 13.81469727 C2.78477814 14.52685394 2.77487854 15.23901062 2.76467896 15.9727478 C2.73297788 18.33726628 2.70827276 20.70180489 2.68359375 23.06640625 C2.66303164 24.70166052 2.64203537 26.33690938 2.62062073 27.97215271 C2.56532328 32.28428786 2.51594799 36.59647158 2.46777344 40.90869141 C2.41761428 45.30570824 2.36189913 49.7026542 2.30664062 54.09960938 C2.19896527 62.73301307 2.09754129 71.3664759 2 80 C1.34 80 0.68 80 0 80 C0 53.6 0 27.2 0 0 Z " fill="#1E3000" transform="translate(123,134)"/>
<path d="M0 0 C2.475 0.99 2.475 0.99 5 2 C5 3.32 5 4.64 5 6 C5.804375 6.226875 6.60875 6.45375 7.4375 6.6875 C10 8 10 8 10.875 10.4375 C11 13 11 13 10 16 C8.3305554 13.52266346 6.66433808 11.04326339 5 8.5625 C4.28457031 7.50192383 4.28457031 7.50192383 3.5546875 6.41992188 C3.10351562 5.74638672 2.65234375 5.07285156 2.1875 4.37890625 C1.76855469 3.7557251 1.34960938 3.13254395 0.91796875 2.49047852 C0 1 0 1 0 0 Z " fill="#BEE925" transform="translate(148,171)"/>
<path d="M0 0 C0.99 0 1.98 0 3 0 C3 0.66 3 1.32 3 2 C3.66 2 4.32 2 5 2 C3.92598892 4.91517292 3.22189824 6.77810176 1 9 C-0.65 6.69 -2.3 4.38 -4 2 C-3.01 1.67 -2.02 1.34 -1 1 C-0.67 0.67 -0.34 0.34 0 0 Z " fill="#C4F611" transform="translate(147,162)"/>
<path d="M0 0 C2.98162648 2.68064211 4.99718996 5.84817485 7.1875 9.1875 C7.90292969 10.27417969 8.61835938 11.36085938 9.35546875 12.48046875 C9.89816406 13.31191406 10.44085938 14.14335938 11 15 C9.68 15.33 8.36 15.66 7 16 C6.67 14.02 6.34 12.04 6 10 C5.34 10 4.68 10 4 10 C4 9.01 4 8.02 4 7 C1.525 6.01 1.525 6.01 -1 5 C-0.67 3.35 -0.34 1.7 0 0 Z " fill="#BCE81E" transform="translate(129,93)"/>
<path d="M0 0 C0.66 0 1.32 0 2 0 C2 0.66 2 1.32 2 2 C2.78375 2.185625 3.5675 2.37125 4.375 2.5625 C7 4 7 4 8.3125 7.4375 C9 11 9 11 9 14 C0 3.33333333 0 3.33333333 0 0 Z " fill="#BCE81C" transform="translate(167,199)"/>
<path d="M0 0 C0 0.66 0 1.32 0 2 C-0.886875 2.433125 -1.77375 2.86625 -2.6875 3.3125 C-5.54429455 4.76784817 -8.27396863 6.31627474 -11 8 C-8.90751135 2.67366525 -5.73537573 0 0 0 Z " fill="#D8D5D7" transform="translate(31,29)"/>
<path d="M0 0 C2 1.8125 2 1.8125 4 4 C4 4.99 4 5.98 4 7 C2.35 6.67 0.7 6.34 -1 6 C-0.67 4.02 -0.34 2.04 0 0 Z " fill="#C1F216" transform="translate(157,136)"/>
<path d="M0 0 C1.98 0.99 1.98 0.99 4 2 C4 4.31 4 6.62 4 9 C1.47740939 7.02579865 1.0070192 6.03254358 0.3125 2.8125 C0.209375 1.884375 0.10625 0.95625 0 0 Z " fill="#C3F215" transform="translate(155,178)"/>
<path d="M0 0 C3.08089673 2.77280706 4.68775452 5.06326356 6 9 C3.5625 7.875 3.5625 7.875 1 6 C0.1875 2.8125 0.1875 2.8125 0 0 Z " fill="#B8E223" transform="translate(169,154)"/>
<path d="M0 0 C1.65 0 3.3 0 5 0 C5 1.98 5 3.96 5 6 C3.31237149 4.3545622 1.6459651 2.68711423 0 1 C0 0.67 0 0.34 0 0 Z " fill="#081500" transform="translate(171,156)"/>
</svg>
